<svg id="Objects" xmlns="http://www.w3.org/2000/svg" viewBox="0 0 211.2124 284.8559">
    <defs>
        <style>.cls-1{fill:#213332;fill-rule:evenodd;}</style>
    </defs>
    <path class="cls-1" d="M395.4023,435.97c-16.519.3828-58.0849,3.4814-69.1005,32.125-11.0166,28.6406,15.4228,49.874,15.4228,68.0518,0,18.1757-47.3706,43.71-47.3706,100.4453,0,56.7334,49.0425,84.1494,106.8062,84.1494,59.4677,0,104.4062-30.3984,104.4062-88.6817,0-55.2978-47.3711-69.9531-47.3711-92.5371,0-22.582,15.9746-38.5566,15.9746-51.2255s-.5517-18.7276-7.7119-18.7276-10.6758,16.12-27.9209,16.12-25.6764-24.3865-26.0586-39.8056C412.2073,434.9428,402.582,435.8037,395.4023,435.97Z" transform="translate(-294.354 -435.8853)"/>
</svg>