<?xml version="1.0" standalone="no"?><!DOCTYPE svg PUBLIC "-//W3C//DTD SVG 1.1//EN" "http://www.w3.org/Graphics/SVG/1.1/DTD/svg11.dtd"><svg t="1621925148014" class="icon" viewBox="0 0 1024 1024" version="1.1" xmlns="http://www.w3.org/2000/svg" p-id="1171" xmlns:xlink="http://www.w3.org/1999/xlink" width="200" height="200"><defs><style type="text/css"></style></defs><path d="M434.237 139.629q10.175-11.628 21.076-11.628 5.087 0.727 10.901 2.907 18.896 7.994 18.896 29.797 0 53.78 0 162.066 0 5.814 4.361 10.901 3.634 4.361 10.175 4.361 73.402 2.18 138.81 33.431 66.135 30.524 114.1 80.67 47.966 50.146 75.582 118.461 28.343 69.042 28.343 143.897 0 84.304-34.884 156.979-17.442-122.095-108.286-205.672-90.844-84.304-213.666-90.118-5.814 0-10.901 3.634-5.087 5.087-5.087 10.901 0 47.966 0 143.897 0 21.803-18.896 29.797-7.994 3.634-16.715 1.454-9.448-2.907-15.262-10.175-80.67-94.478-241.283-282.708-0.727-0.727-2.907-3.634-7.994-7.994-7.994-20.349 0-12.355 7.994-21.803 0.727-1.454 2.907-3.634 61.047-71.222 242.736-283.434zM485.11 368.557q-12.355 0-21.076-8.721t-8.721-21.076q0-50.873 0-153.345 0-5.814-5.087-7.268-1.454-0.727-2.907-0.727-2.907 0-5.814 2.907-73.402 85.757-219.48 257.998-3.634 5.087-3.634 10.175 0 0.727 0 1.454 0 4.361 3.634 9.448 73.402 85.757 220.933 257.271 3.634 4.361 7.994 2.907 5.087-2.907 5.087-7.994 0-45.059 0-135.903 0-12.355 9.448-21.076 8.721-8.721 20.349-8.721 113.374 0 206.398 63.228 92.298 62.501 134.45 164.973 0-19.622 0-59.594 0-70.495-26.89-134.45-26.89-63.954-72.675-109.74-45.786-46.512-109.013-74.129-63.228-27.617-132.996-27.617z" p-id="1172" fill="#ffffff"></path></svg>