<?xml version="1.0" standalone="no"?><!DOCTYPE svg PUBLIC "-//W3C//DTD SVG 1.1//EN" "http://www.w3.org/Graphics/SVG/1.1/DTD/svg11.dtd"><svg t="1623144336810" class="icon" viewBox="0 0 1024 1024" version="1.1" xmlns="http://www.w3.org/2000/svg" p-id="3586" xmlns:xlink="http://www.w3.org/1999/xlink" width="200" height="200"><defs><style type="text/css"></style></defs><path d="M373.674667 202.154667a9.159111 9.159111 0 0 0-15.530667-5.404445l-49.948444 49.976889-152.803556-152.689778a9.187556 9.187556 0 0 0-12.913778 0l-48.440889 48.355556a9.187556 9.187556 0 0 0 0 12.885333l152.803556 152.803556-50.176 50.176a9.159111 9.159111 0 0 0 5.376 15.530666l183.068444 21.617778a9.159111 9.159111 0 0 0 10.183111-10.183111l-21.617777-183.068444z m11.548444 426.496l-183.182222 21.617777a9.159111 9.159111 0 0 0-5.404445 15.530667l50.204445 50.176-152.803556 152.576a9.187556 9.187556 0 0 0 0 12.913778l48.440889 48.355555c3.555556 3.527111 9.386667 3.527111 12.913778 0l152.803556-152.718222 49.948444 49.948445a9.130667 9.130667 0 0 0 15.530667-5.376l21.617777-182.954667a9.045333 9.045333 0 0 0-10.069333-10.069333z m253.496889-233.358223l183.182222-21.617777a9.159111 9.159111 0 0 0 5.404445-15.530667l-50.204445-50.062222 152.803556-152.689778a9.159111 9.159111 0 0 0 0-12.913778l-48.440889-48.355555a9.159111 9.159111 0 0 0-12.913778 0l-152.803555 152.604444-49.948445-49.948444a9.130667 9.130667 0 0 0-15.530667 5.376l-21.617777 182.954666a9.102222 9.102222 0 0 0 10.069333 10.183111z m138.410667 320.568889l50.147555-50.176a9.159111 9.159111 0 0 0-5.376-15.530666l-183.068444-21.617778a9.159111 9.159111 0 0 0-10.183111 10.183111l21.617777 183.096889a9.159111 9.159111 0 0 0 15.530667 5.347555l49.948445-49.92 152.803555 152.661334c3.527111 3.555556 9.386667 3.555556 12.913778 0l48.440889-48.355556a9.159111 9.159111 0 0 0 0-12.885333l-152.803556-152.803556z" p-id="3587" fill="#ffffff"></path></svg>